<?xml version="1.0" encoding="UTF-8"?>
<!DOCTYPE svg PUBLIC "-//W3C//DTD SVG 1.1//EN" "http://www.w3.org/Graphics/SVG/1.1/DTD/svg11.dtd">
<svg xmlns="http://www.w3.org/2000/svg" version="1.1" width="195px" height="157px" style="shape-rendering:geometricPrecision; text-rendering:geometricPrecision; image-rendering:optimizeQuality; fill-rule:evenodd; clip-rule:evenodd" xmlns:xlink="http://www.w3.org/1999/xlink">
<g><path style="opacity:0.999" fill="#ec7404" d="M 165.5,-0.5 C 167.5,-0.5 169.5,-0.5 171.5,-0.5C 177.856,26.9232 184.523,54.2565 191.5,81.5C 175.955,85.2614 160.455,89.2614 145,93.5C 144.228,93.3552 143.561,93.0219 143,92.5C 135.67,64.8474 128.504,37.1807 121.5,9.5C 136.418,6.78587 151.085,3.45253 165.5,-0.5 Z"/></g>
<g><path style="opacity:0.997" fill="#01762d" d="M 70.5,-0.5 C 70.8333,-0.5 71.1667,-0.5 71.5,-0.5C 72.8321,0.830431 73.6655,2.4971 74,4.5C 75.2772,11.8294 76.4439,19.1627 77.5,26.5C 78.508,34.8815 79.8413,43.2148 81.5,51.5C 81.2627,52.791 81.596,53.791 82.5,54.5C 82.5,54.8333 82.5,55.1667 82.5,55.5C 82.5842,59.7553 83.2509,63.922 84.5,68C 84.3552,68.772 84.0219,69.4387 83.5,70C 85.8267,73.1668 85.8267,76.1668 83.5,79C 84.448,79.4828 85.448,79.6495 86.5,79.5C 86.5674,82.766 84.9008,84.266 81.5,84C 70.5497,85.9364 59.5497,87.4364 48.5,88.5C 44.6117,61.1047 40.6117,33.438 36.5,5.5C 47.8264,4.29025 59.1598,2.29025 70.5,-0.5 Z"/></g>
<g><path style="opacity:0.999" fill="#0aa7dd" d="M 82.5,55.5 C 82.5,55.1667 82.5,54.8333 82.5,54.5C 82.7373,53.209 82.404,52.209 81.5,51.5C 79.8413,43.2148 78.508,34.8815 77.5,26.5C 91.2771,23.6391 104.944,20.3057 118.5,16.5C 119.086,16.7093 119.586,17.0426 120,17.5C 127.158,45.4651 133.992,73.4651 140.5,101.5C 125.899,105.15 111.233,108.484 96.5,111.5C 92.4362,92.5782 87.7695,73.9115 82.5,55.5 Z"/></g>
<g><path style="opacity:1" fill="#f2f5f2" d="M 63.5,21.5 C 66.5184,21.3354 69.5184,21.502 72.5,22C 73.5762,23.7261 73.7429,25.5594 73,27.5C 67.2367,28.7289 61.4034,29.7289 55.5,30.5C 56.1621,34.4659 56.4955,38.4659 56.5,42.5C 62.4657,41.5526 68.4657,40.8859 74.5,40.5C 74.8076,42.924 74.4742,45.2573 73.5,47.5C 69.1909,48.3782 64.8576,49.2116 60.5,50C 59.6433,50.6891 58.9767,51.5224 58.5,52.5C 59.5486,57.3528 60.5486,62.1861 61.5,67C 58.5608,70.349 55.0608,71.1823 51,69.5C 48.2573,55.2194 46.2573,40.886 45,26.5C 45.3742,25.5838 45.8742,24.7504 46.5,24C 52.3476,23.411 58.0142,22.5776 63.5,21.5 Z"/></g>
<g><path style="opacity:1" fill="#fef6f4" d="M 153.5,28.5 C 172.435,26.2737 181.602,34.607 181,53.5C 180.439,55.7254 179.439,57.7254 178,59.5C 167.744,70.1982 155.911,72.3648 142.5,66C 131.533,55.0593 131.867,44.3926 143.5,34C 147.056,32.3924 150.389,30.5591 153.5,28.5 Z"/></g>
<g><path style="opacity:1" fill="#fafcfd" d="M 103.5,39.5 C 111.844,38.0081 118.178,40.8414 122.5,48C 119.611,50.6116 116.278,52.4449 112.5,53.5C 104.775,47.0259 100.442,48.8592 99.5,59C 100.136,64.2705 102.136,68.9371 105.5,73C 107.5,73.6667 109.5,73.6667 111.5,73C 112.991,70.3788 113.658,67.5455 113.5,64.5C 117.514,64.3345 121.514,64.5012 125.5,65C 126.443,75.7179 121.443,81.7179 110.5,83C 103.676,84.9453 98.1756,83.112 94,77.5C 88.661,69.1509 86.9944,60.1509 89,50.5C 91.8038,44.0285 96.6371,40.3619 103.5,39.5 Z"/></g>
<g><path style="opacity:1" fill="#ec710a" d="M 151.5,64.5 C 153.615,61.1088 155.615,57.6088 157.5,54C 156.241,53.0181 154.908,52.6848 153.5,53C 152.027,55.4476 150.693,57.9476 149.5,60.5C 148.833,60.1667 148.167,59.8333 147.5,59.5C 141.293,48.4738 143.96,40.6404 155.5,36C 158.652,35.6051 161.652,34.7718 164.5,33.5C 165.209,32.596 166.209,32.2627 167.5,32.5C 167.337,34.8568 167.503,37.1902 168,39.5C 172.379,45.9061 172.546,52.4061 168.5,59C 163.068,61.6068 157.401,63.4401 151.5,64.5 Z"/></g>
<g><path style="opacity:1" fill="#fdeee9" d="M 164.5,33.5 C 165.649,33.7911 166.316,34.6244 166.5,36C 165.587,39.9922 163.754,43.4922 161,46.5C 159.842,46.0019 159.009,45.1685 158.5,44C 159.912,40.1064 161.912,36.6064 164.5,33.5 Z"/></g>
<g><path style="opacity:1" fill="#9ac210" d="M -0.5,37.5 C -0.5,36.8333 -0.5,36.1667 -0.5,35.5C 0.833333,35.1667 0.833333,34.8333 -0.5,34.5C -0.5,33.5 -0.5,32.5 -0.5,31.5C 10.9586,29.6049 22.6252,27.6049 34.5,25.5C 37.9059,43.3596 41.5725,61.5263 45.5,80C 45.4148,81.1074 45.0814,82.1074 44.5,83C 45.428,83.3879 46.0946,84.0546 46.5,85C 48.0699,91.1133 49.4032,97.2799 50.5,103.5C 50.4302,104.772 50.0968,105.938 49.5,107C 39.025,109.295 28.525,111.462 18,113.5C 17.1667,113.167 16.3333,112.833 15.5,112.5C 10.2999,87.6917 4.96657,62.6917 -0.5,37.5 Z"/></g>
<g><path style="opacity:1" fill="#fafcf8" d="M 23.5,43.5 C 27.226,43.1774 30.8927,43.5108 34.5,44.5C 35.4279,45.7678 35.5946,47.1011 35,48.5C 29.3048,50.312 23.4714,51.6453 17.5,52.5C 18.0381,56.5236 18.7048,60.5236 19.5,64.5C 25.1002,63.3137 30.7669,62.6471 36.5,62.5C 36.7564,64.7925 36.4231,66.9592 35.5,69C 30.76,69.4122 26.26,70.5789 22,72.5C 23.1031,78.4279 23.7698,84.4279 24,90.5C 21.1635,92.5854 18.1635,92.9187 15,91.5C 12.1652,77.9925 9.33191,64.4925 6.5,51C 6.90307,49.5272 7.56974,48.1939 8.5,47C 13.6644,45.9568 18.6644,44.7901 23.5,43.5 Z"/></g>
<g><path style="opacity:1" fill="#fdeae4" d="M 155.5,47.5 C 156.833,47.5 158.167,47.5 159.5,47.5C 159.5,48.8333 159.5,50.1667 159.5,51.5C 156.5,51.8333 155.167,50.5 155.5,47.5 Z"/></g>
<g><path style="opacity:1" fill="#fdf4f1" d="M 151.5,64.5 C 149.824,63.8166 149.157,62.4832 149.5,60.5C 150.693,57.9476 152.027,55.4476 153.5,53C 154.908,52.6848 156.241,53.0181 157.5,54C 155.615,57.6088 153.615,61.1088 151.5,64.5 Z"/></g>
<g><path style="opacity:1" fill="#f4a27d" d="M 147.5,59.5 C 148.167,59.8333 148.833,60.1667 149.5,60.5C 149.157,62.4832 149.824,63.8166 151.5,64.5C 150.739,65.3909 149.739,66.0576 148.5,66.5C 147.526,64.2573 147.192,61.924 147.5,59.5 Z"/></g>
<g><path style="opacity:0.969" fill="#f27803" d="M 83.5,123.5 C 85.8333,123.5 88.1667,123.5 90.5,123.5C 90.5,125.833 90.5,128.167 90.5,130.5C 89.5,130.5 88.5,130.5 87.5,130.5C 87.7818,135.55 85.4484,138.55 80.5,139.5C 74.629,137.672 73.129,134.005 76,128.5C 78.1675,126.536 80.5008,126.202 83,127.5C 83.49,126.207 83.6567,124.873 83.5,123.5 Z M 80.5,129.5 C 84.457,131.63 84.457,133.63 80.5,135.5C 76.8739,133.712 76.8739,131.712 80.5,129.5 Z"/></g>
<g><path style="opacity:0.986" fill="#f17703" d="M 98.5,122.5 C 103.314,123.143 106.48,125.809 108,130.5C 109.465,127.13 111.298,126.463 113.5,128.5C 111.838,131.979 111.172,135.646 111.5,139.5C 110.167,139.5 108.833,139.5 107.5,139.5C 107.662,137.473 107.495,135.473 107,133.5C 102.515,141.035 97.5147,141.368 92,134.5C 90.5413,128.474 92.708,124.474 98.5,122.5 Z M 97.5,126.5 C 103.992,126.658 105.658,129.492 102.5,135C 98.2598,136.539 95.5932,135.206 94.5,131C 94.9567,129.06 95.9567,127.56 97.5,126.5 Z"/></g>
<g><path style="opacity:0.97" fill="#f07703" d="M 50.5,126.5 C 52.9124,126.244 54.5791,127.244 55.5,129.5C 54.0202,130.113 52.6869,130.446 51.5,130.5C 54.7248,131.813 55.8915,134.147 55,137.5C 52.4262,140.259 50.2595,139.926 48.5,136.5C 48.9767,135.522 49.6433,134.689 50.5,134C 47.9387,131.51 47.9387,129.01 50.5,126.5 Z"/></g>
<g><path style="opacity:0.977" fill="#f07703" d="M 60.5,126.5 C 63.99,126.245 66.6567,127.578 68.5,130.5C 67.2822,131.803 67.6155,132.803 69.5,133.5C 67.1089,139.288 63.2756,140.621 58,137.5C 55.5997,132.99 56.433,129.323 60.5,126.5 Z M 62.5,130.5 C 62.2172,131.289 61.7172,131.956 61,132.5C 60.4719,131.184 60.9719,130.517 62.5,130.5 Z"/></g>
<g><path style="opacity:0.982" fill="#f07703" d="M 194.5,130.5 C 194.5,133.5 194.5,136.5 194.5,139.5C 193.5,139.5 192.5,139.5 191.5,139.5C 192.12,135.698 191.286,132.365 189,129.5C 186.714,132.365 185.88,135.698 186.5,139.5C 185.5,139.5 184.5,139.5 183.5,139.5C 183.66,137.801 183.494,136.134 183,134.5C 179.509,140.661 175.509,140.994 171,135.5C 170.51,136.793 170.343,138.127 170.5,139.5C 169.167,139.5 167.833,139.5 166.5,139.5C 165.833,127.5 165.167,127.5 164.5,139.5C 163.5,139.5 162.5,139.5 161.5,139.5C 161.817,136.428 161.484,133.428 160.5,130.5C 160.379,133.002 160.212,135.668 160,138.5C 159.439,139.022 158.772,139.355 158,139.5C 155.176,139.852 152.343,139.352 149.5,138C 148.044,135.734 147.21,133.234 147,130.5C 146.502,133.482 146.335,136.482 146.5,139.5C 145.5,139.5 144.5,139.5 143.5,139.5C 142.833,127.5 142.167,127.5 141.5,139.5C 140.5,139.5 139.5,139.5 138.5,139.5C 139.12,135.698 138.286,132.365 136,129.5C 134.768,132.3 134.101,135.3 134,138.5C 132.989,139.337 131.822,139.67 130.5,139.5C 130.79,135.446 130.123,134.946 128.5,138C 123.839,140.423 120.339,139.256 118,134.5C 117.506,136.134 117.34,137.801 117.5,139.5C 116.5,139.5 115.5,139.5 114.5,139.5C 114.5,134.167 114.5,128.833 114.5,123.5C 115.5,123.5 116.5,123.5 117.5,123.5C 117.336,126.187 117.503,128.854 118,131.5C 121.752,125.349 125.918,125.016 130.5,130.5C 133.688,125.819 137.188,125.485 141,129.5C 142.122,127.58 142.956,125.58 143.5,123.5C 144.5,123.5 145.5,123.5 146.5,123.5C 146.729,125.433 147.562,127.1 149,128.5C 152.607,125.731 155.94,126.064 159,129.5C 160.122,127.58 160.956,125.58 161.5,123.5C 162.5,123.5 163.5,123.5 164.5,123.5C 165.167,127.5 165.833,127.5 166.5,123.5C 167.833,123.5 169.167,123.5 170.5,123.5C 170.337,125.857 170.503,128.19 171,130.5C 175,125.167 179,125.167 183,130.5C 186.924,125.284 190.758,125.284 194.5,130.5 Z M 122.5,131.5 C 122.783,130.711 123.283,130.044 124,129.5C 124.528,130.816 124.028,131.483 122.5,131.5 Z M 153.5,129.5 C 157.384,131.732 157.384,133.732 153.5,135.5C 149.527,133.46 149.527,131.46 153.5,129.5 Z M 176.5,129.5 C 178.913,130.68 179.913,132.68 179.5,135.5C 177.833,135.5 176.167,135.5 174.5,135.5C 174.259,133.114 174.925,131.114 176.5,129.5 Z M 125.5,133.5 C 127.975,133.747 127.975,134.413 125.5,135.5C 124.537,135.03 124.537,134.363 125.5,133.5 Z"/></g>
<g><path style="opacity:0.968" fill="#f07703" d="M 9.5,122.5 C 11.9237,123.03 14.257,123.864 16.5,125C 17.3366,126.011 17.67,127.178 17.5,128.5C 15.2532,128.085 13.0865,127.418 11,126.5C 6.91771,127.159 5.58437,129.492 7,133.5C 9.79531,136.113 12.6286,136.113 15.5,133.5C 16.086,133.709 16.586,134.043 17,134.5C 17.2997,128.275 20.4664,125.775 26.5,127C 28.0488,128.214 29.2155,129.714 30,131.5C 30.4935,129.866 30.6602,128.199 30.5,126.5C 31.5,126.5 32.5,126.5 33.5,126.5C 33.3359,129.187 33.5026,131.854 34,134.5C 35.0113,135.337 36.1779,135.67 37.5,135.5C 37.5,132.5 37.5,129.5 37.5,126.5C 38.8333,126.5 40.1667,126.5 41.5,126.5C 41.3433,127.873 41.51,129.207 42,130.5C 43.4646,127.13 45.298,126.463 47.5,128.5C 45.8382,131.979 45.1715,135.646 45.5,139.5C 44.1667,139.5 42.8333,139.5 41.5,139.5C 41.7895,135.446 41.1229,134.946 39.5,138C 35.2268,140.122 32.0601,138.955 30,134.5C 26.3737,140.582 22.3737,140.915 18,135.5C 10.9898,141.596 5.82313,140.263 2.5,131.5C 3.18779,127.083 5.52112,124.083 9.5,122.5 Z M 23.5,129.5 C 25.913,130.68 26.913,132.68 26.5,135.5C 20.4474,135.407 19.4474,133.407 23.5,129.5 Z"/></g>
<g><path style="opacity:1" fill="#f17704" d="M 141.5,150.5 C 140.001,151.678 139.001,153.345 138.5,155.5C 137.914,155.291 137.414,154.957 137,154.5C 136.502,151.183 136.335,147.85 136.5,144.5C 138.924,144.192 141.257,144.526 143.5,145.5C 143.192,146.308 142.692,146.975 142,147.5C 141.107,146.289 140.274,146.289 139.5,147.5C 140.612,148.265 141.279,149.265 141.5,150.5 Z"/></g>
<g><path style="opacity:0.971" fill="#f27903" d="M 141.5,150.5 C 142.451,148.882 143.784,147.549 145.5,146.5C 147.426,147.061 149.426,147.227 151.5,147C 153.478,149.497 153.978,152.331 153,155.5C 151.201,155.279 149.368,154.946 147.5,154.5C 146.194,153.088 145.36,151.421 145,149.5C 144.808,151.577 144.308,153.577 143.5,155.5C 141.783,154.332 141.116,152.665 141.5,150.5 Z M 148.5,149.5 C 149.5,149.5 150.5,149.5 151.5,149.5C 151.5,150.5 151.5,151.5 151.5,152.5C 150.5,152.5 149.5,152.5 148.5,152.5C 148.5,151.5 148.5,150.5 148.5,149.5 Z"/></g>
<g><path style="opacity:0.876" fill="#f37804" d="M 69.5,144.5 C 75.6966,144.325 76.3633,145.325 71.5,147.5C 73.8454,150.077 75.8454,149.91 77.5,147C 76.2586,145.513 76.7586,144.68 79,144.5C 81.2414,144.68 81.7414,145.513 80.5,147C 81.3333,147.833 82.1667,148.667 83,149.5C 85.4337,147.185 88.2671,145.519 91.5,144.5C 91.3433,145.873 91.51,147.207 92,148.5C 93.6883,147.675 93.8549,146.675 92.5,145.5C 94.1667,144.167 95.8333,144.167 97.5,145.5C 97.2907,146.086 96.9574,146.586 96.5,147C 97.8491,147.772 98.6824,148.939 99,150.5C 99.6368,148.697 100.803,147.364 102.5,146.5C 103.192,147.025 103.692,147.692 104,148.5C 106,145.833 108,145.833 110,148.5C 110.523,146.777 111.523,145.444 113,144.5C 113.945,144.905 114.612,145.572 115,146.5C 115.308,145.692 115.808,145.025 116.5,144.5C 117.298,146.078 117.798,147.744 118,149.5C 120.667,145.5 123.333,145.5 126,149.5C 128.034,146.141 130.368,145.808 133,148.5C 133.545,157.424 132.379,157.758 129.5,149.5C 128.833,151.5 128.167,153.5 127.5,155.5C 126.749,154.624 126.249,153.624 126,152.5C 123.333,156.5 120.667,156.5 118,152.5C 117.751,153.624 117.251,154.624 116.5,155.5C 115.692,153.577 115.192,151.577 115,149.5C 114.808,151.577 114.308,153.577 113.5,155.5C 110.886,155.088 108.22,154.921 105.5,155C 103.513,153.681 102.346,151.848 102,149.5C 101.808,151.577 101.308,153.577 100.5,155.5C 99.7492,154.624 99.2492,153.624 99,152.5C 95.8523,156.68 93.1857,156.347 91,151.5C 88.8652,156.325 86.1985,156.659 83,152.5C 81.9384,153.899 80.605,154.899 79,155.5C 76.5745,153.548 74.0745,151.881 71.5,150.5C 71.5,152.167 71.5,153.833 71.5,155.5C 48.5,155.5 25.5,155.5 2.5,155.5C 2.5,154.5 2.5,153.5 2.5,152.5C 24.8333,152.5 47.1667,152.5 69.5,152.5C 69.5,149.833 69.5,147.167 69.5,144.5 Z M 85.5,149.5 C 86.5,149.5 87.5,149.5 88.5,149.5C 88.5,150.5 88.5,151.5 88.5,152.5C 87.5,152.5 86.5,152.5 85.5,152.5C 85.5,151.5 85.5,150.5 85.5,149.5 Z M 105.5,149.5 C 106.5,149.5 107.5,149.5 108.5,149.5C 108.5,150.5 108.5,151.5 108.5,152.5C 107.5,152.5 106.5,152.5 105.5,152.5C 105.5,151.5 105.5,150.5 105.5,149.5 Z M 120.5,149.5 C 121.5,149.5 122.5,149.5 123.5,149.5C 123.5,150.5 123.5,151.5 123.5,152.5C 122.5,152.5 121.5,152.5 120.5,152.5C 120.5,151.5 120.5,150.5 120.5,149.5 Z"/></g>
<g><path style="opacity:1" fill="#f17604" d="M 178.5,144.5 C 179.787,145.871 180.453,147.705 180.5,150C 180.167,151.833 179.833,153.667 179.5,155.5C 178.511,151.893 178.177,148.226 178.5,144.5 Z"/></g>
<g><path style="opacity:0.869" fill="#f27703" d="M 186.5,149.5 C 188.838,146.159 191.505,145.826 194.5,148.5C 194.5,150.167 194.5,151.833 194.5,153.5C 191.648,156.279 189.148,155.945 187,152.5C 185.386,155.602 183.553,155.936 181.5,153.5C 182.025,152.808 182.692,152.308 183.5,152C 180.919,150.159 180.919,148.326 183.5,146.5C 185.213,146.879 186.213,147.879 186.5,149.5 Z M 186.5,149.5 C 186.489,152.001 185.822,152.168 184.5,150C 185.094,149.536 185.761,149.369 186.5,149.5 Z"/></g>
<g><path style="opacity:1" fill="#f27704" d="M 166.5,156.5 C 165.833,156.5 165.167,156.5 164.5,156.5C 163.46,153.612 162.127,153.279 160.5,155.5C 158.627,147.721 156.96,147.721 155.5,155.5C 154.353,153.235 154.186,150.902 155,148.5C 157.12,145.92 159.287,145.92 161.5,148.5C 163.173,146.914 165.173,146.247 167.5,146.5C 167.5,147.5 167.5,148.5 167.5,149.5C 166.167,149.5 164.833,149.5 163.5,149.5C 163.5,150.5 163.5,151.5 163.5,152.5C 164.552,152.649 165.552,152.483 166.5,152C 168.569,150 170.735,148.167 173,146.5C 177.459,148.022 178.625,151.022 176.5,155.5C 174.127,155.862 171.793,155.195 169.5,153.5C 167.787,153.879 166.787,154.879 166.5,156.5 Z M 171.5,149.5 C 176.833,150.5 176.833,151.5 171.5,152.5C 171.5,151.5 171.5,150.5 171.5,149.5 Z"/></g>
</svg>
